<svg xmlns="http://www.w3.org/2000/svg" xmlns:xlink="http://www.w3.org/1999/xlink" width="0" height="0" style="display:none;"><symbol viewBox="0 0 24 24" id="ui-icon-arrow-angle">
<path d="M16.59 8.59009L12 13.1701L7.41 8.59009L6 10.0001L12 16.0001L18 10.0001L16.59 8.59009Z" fill="black"></path>
</symbol><symbol viewBox="0 0 24 24" id="ui-icon-arrow">
<path fill-rule="evenodd" clip-rule="evenodd" d="M8.29289 18.7071C7.90237 18.3166 7.90237 17.6834 8.29289 17.2929L13.5858 12L8.29289 6.70711C7.90237 6.31658 7.90237 5.68342 8.2929 5.29289C8.68342 4.90237 9.31658 4.90237 9.70711 5.29289L15.7071 11.2929C16.0976 11.6834 16.0976 12.3166 15.7071 12.7071L9.70711 18.7071C9.31658 19.0976 8.68342 19.0976 8.29289 18.7071Z" fill="#2A2536"></path>
</symbol><symbol id="ui-icon-blocks"></symbol><symbol id="ui-icon-cart"></symbol><symbol viewBox="0 0 32 32" id="ui-icon-close-circle">
<path d="M16.0001 29.3334C8.63608 29.3334 2.66675 23.3641 2.66675 16.0001C2.66675 8.63608 8.63608 2.66675 16.0001 2.66675C23.3641 2.66675 29.3334 8.63608 29.3334 16.0001C29.3334 23.3641 23.3641 29.3334 16.0001 29.3334ZM16.0001 14.1147L12.2294 10.3427L10.3427 12.2294L14.1147 16.0001L10.3427 19.7707L12.2294 21.6574L16.0001 17.8854L19.7707 21.6574L21.6574 19.7707L17.8854 16.0001L21.6574 12.2294L19.7707 10.3427L16.0001 14.1147Z" fill="#2A2536"></path>
</symbol><symbol viewBox="0 0 17 17" id="ui-icon-cross">
<path fill-rule="evenodd" clip-rule="evenodd" d="M3.16716 1.29289C2.77664 0.902369 2.14347 0.902369 1.75295 1.29289L1.50695 1.53889C1.11643 1.92941 1.11643 2.56258 1.50695 2.9531L6.48956 7.93571L1.29289 13.1324C0.902369 13.5229 0.902369 14.1561 1.29289 14.5466L1.54279 14.7965C1.93332 15.187 2.56648 15.187 2.95701 14.7965L8.15367 9.59982L13.3464 14.7926C13.7369 15.1831 14.3701 15.1831 14.7606 14.7926L15.0066 14.5466C15.3972 14.1561 15.3972 13.5229 15.0066 13.1324L9.81388 7.93961L14.7965 2.95701C15.187 2.56648 15.187 1.93332 14.7965 1.54279L14.5466 1.2929C14.1561 0.902372 13.5229 0.902373 13.1324 1.2929L8.14977 6.2755L3.16716 1.29289Z" fill="#808D9A"></path>
</symbol><symbol viewBox="0 0 24 24" id="ui-icon-map-pinline">
<path d="M12 20.9L16.95 15.95C17.9289 14.971 18.5955 13.7237 18.8656 12.3659C19.1356 11.008 18.9969 9.6006 18.4671 8.32155C17.9373 7.04251 17.04 5.9493 15.8889 5.18017C14.7378 4.41103 13.3844 4.0005 12 4.0005C10.6156 4.0005 9.26222 4.41103 8.11109 5.18017C6.95996 5.9493 6.06275 7.04251 5.53292 8.32155C5.00308 9.6006 4.86442 11.008 5.13445 12.3659C5.40449 13.7237 6.07111 14.971 7.05 15.95L12 20.9ZM12 23.728L5.636 17.364C4.37734 16.1053 3.52019 14.5017 3.17293 12.7558C2.82567 11.01 3.00391 9.20043 3.6851 7.5559C4.36629 5.91137 5.51984 4.50577 6.99988 3.51684C8.47992 2.52791 10.22 2.00008 12 2.00008C13.78 2.00008 15.5201 2.52791 17.0001 3.51684C18.4802 4.50577 19.6337 5.91137 20.3149 7.5559C20.9961 9.20043 21.1743 11.01 20.8271 12.7558C20.4798 14.5017 19.6227 16.1053 18.364 17.364L12 23.728ZM12 13C12.5304 13 13.0391 12.7893 13.4142 12.4142C13.7893 12.0391 14 11.5304 14 11C14 10.4696 13.7893 9.96086 13.4142 9.58578C13.0391 9.21071 12.5304 9 12 9C11.4696 9 10.9609 9.21071 10.5858 9.58578C10.2107 9.96086 10 10.4696 10 11C10 11.5304 10.2107 12.0391 10.5858 12.4142C10.9609 12.7893 11.4696 13 12 13ZM12 15C10.9391 15 9.92172 14.5786 9.17158 13.8284C8.42143 13.0783 8 12.0609 8 11C8 9.93913 8.42143 8.92172 9.17158 8.17157C9.92172 7.42143 10.9391 7 12 7C13.0609 7 14.0783 7.42143 14.8284 8.17157C15.5786 8.92172 16 9.93913 16 11C16 12.0609 15.5786 13.0783 14.8284 13.8284C14.0783 14.5786 13.0609 15 12 15Z" fill="#316BFF"></path>
</symbol><symbol id="ui-icon-search"></symbol><symbol id="ui-icon-star-off"><path d="M6 9l-3.527 1.854.674-3.927L.294 4.146l3.943-.573L6 0l1.763 3.573 3.943.573-2.853 2.781.674 3.927z" fill="#D8D8D8" fill-rule="evenodd"></path></symbol><symbol id="ui-icon-star"><path d="M6 9l-3.527 1.854.674-3.927L.294 4.146l3.943-.573L6 0l1.763 3.573 3.943.573-2.853 2.781.674 3.927z" fill="#FF9C00" fill-rule="evenodd"></path></symbol></svg>