<svg width="40" height="40" viewBox="0 0 40 40" fill="none" xmlns="http://www.w3.org/2000/svg">
<rect width="40" height="40" rx="9.11539" fill="#48729E"/>
<g clip-path="url(#clip0_1_645)">
<path fill-rule="evenodd" clip-rule="evenodd" d="M19.721 27.9421H21.275C21.275 27.9421 21.7443 27.8932 21.9843 27.6495C22.2048 27.4255 22.1978 27.0052 22.1978 27.0052C22.1978 27.0052 22.1674 25.0371 23.135 24.7472C24.0893 24.4615 25.3144 26.6494 26.6128 27.4907C27.5948 28.1271 28.3409 27.9878 28.3409 27.9878L31.8131 27.9421C31.8131 27.9421 33.6294 27.8363 32.7682 26.4885C32.6977 26.3784 32.2665 25.4914 30.1864 23.6691C28.0091 21.7618 28.3009 22.0704 30.9236 18.7712C32.5207 16.762 33.1592 15.5354 32.9596 15.01C32.7695 14.5095 31.5948 14.6417 31.5948 14.6417L27.6854 14.6646C27.6854 14.6646 27.3954 14.6273 27.1805 14.7487C26.9704 14.8673 26.8355 15.1446 26.8355 15.1446C26.8355 15.1446 26.2165 16.6992 25.3916 18.0216C23.6508 20.8116 22.9547 20.9593 22.67 20.7857C22.0079 20.3819 22.1734 19.1638 22.1734 18.2982C22.1734 15.5943 22.608 14.467 21.3273 14.1753C20.9024 14.0784 20.5894 14.0144 19.5025 14.004C18.1075 13.9905 16.9271 14.008 16.2585 14.3171C15.8138 14.5227 15.4706 14.9806 15.6797 15.0071C15.9382 15.0396 16.5232 15.1561 16.8334 15.5545C17.2341 16.0691 17.22 17.2243 17.22 17.2243C17.22 17.2243 17.4503 20.4071 16.6824 20.8024C16.1555 21.0736 15.4326 20.52 13.8806 17.9888C13.0855 16.6923 12.4851 15.2589 12.4851 15.2589C12.4851 15.2589 12.3695 14.9911 12.1628 14.8477C11.9123 14.674 11.5623 14.619 11.5623 14.619L7.84732 14.6417C7.84732 14.6417 7.28975 14.6564 7.08485 14.8853C6.90256 15.0891 7.07029 15.51 7.07029 15.51C7.07029 15.51 9.97862 21.9325 13.2719 25.1689C16.2921 28.1369 19.721 27.9421 19.721 27.9421Z" fill="white"/>
</g>
<defs>
<clipPath id="clip0_1_645">
<rect width="26" height="14" fill="white" transform="translate(7 14)"/>
</clipPath>
</defs>
</svg>
